<svg xmlns="http://www.w3.org/2000/svg" xmlns:xlink="http://www.w3.org/1999/xlink" width="597.23" height="454.773" viewBox="0 0 597.23 454.773">
  <defs>
    <clipPath id="clip-path">
      <rect width="597.23" height="454.774" fill="none"/>
    </clipPath>
  </defs>
  <g id="Grupo_1" data-name="Grupo 1" transform="translate(-942 328)">
    <g id="logo" transform="translate(942 -328)" clip-path="url(#clip-path)">
      <path id="Trazado_2" data-name="Trazado 2" d="M407.035-55.474s100.4-56.181,144.25-93.995,73.856-88.593,71.548-157.739-61.162-96.156-84.242-106.96c-19.987-9.356-52.483,2.244-64.467,7.492h0s-.658-1.175,12.657,12.122c4.288,4.282,6.477,6.212,8.525,8.174h0s.141.927,6.9-1.71c11.415-2.4,40.657-5.43,59.136,17.637,23.968,29.919,26.631,42.385,31.069,55.682s8.877,63.993-15.978,93.912-42.609,55.682-52.374,60.669-43.5,30.75-43.5,30.75-23.08-49.865-85.219-58.175-89.657-27.426-89.657-27.426H297.7s-8.877,12.466,0,17.453,15.091,20.777,39.058,29.919,29.294,11.635,29.294,11.635-36.373,2.975-39.109,0" transform="translate(-120.536 419.73)" fill="#135a98" stroke="#135a98" stroke-width="1"/>
      <g id="Trazado_6" data-name="Trazado 6" transform="translate(164.879 101.994) rotate(-13)" fill="#1bf007">
        <path d="M 33.32439041137695 89.27535247802734 C 33.21483612060547 89.27535247802734 33.10820007324219 89.27460479736328 32.99836730957031 89.27306365966797 C 28.72457695007324 89.213134765625 24.55853080749512 87.99073028564453 20.61594200134277 85.63984680175781 C 16.79247093200684 83.35997772216797 13.33814239501953 80.12062835693359 10.34890747070313 76.01177978515625 C 7.351283550262451 71.89140319824219 4.974000930786133 67.10648345947266 3.283095121383667 61.78993225097656 C 1.530448198318481 56.27926254272461 0.5964246392250061 50.43753051757813 0.5069893598556519 44.4270133972168 C 0.4530246555805206 40.80013275146484 0.7141423225402832 37.19743728637695 1.283095240592957 33.71899032592773 C 1.835389375686646 30.3423900604248 2.679765939712524 27.06791877746582 3.792765855789185 23.98651885986328 C 5.971071720123291 17.95584869384766 9.192625045776367 12.66700172424316 13.10916614532471 8.691742897033691 C 18.38910675048828 3.332660675048828 24.68717765808105 0.4999900758266449 31.32250785827637 0.4999900758266449 C 31.43206024169922 0.4999900758266449 31.53868293762207 0.50074303150177 31.64851951599121 0.5022841691970825 C 35.92230606079102 0.562225341796875 40.08835220336914 1.784613609313965 44.03095245361328 4.135507583618164 C 47.85442352294922 6.415378093719482 51.30875396728516 9.654730796813965 54.29798889160156 13.76357841491699 C 57.29561233520508 17.88395500183105 59.67289352416992 22.66887283325195 61.36381149291992 27.98542594909668 C 63.11645889282227 33.4960823059082 64.05046844482422 39.33781433105469 64.13991546630859 45.34833145141602 C 64.19388580322266 48.97521209716797 63.93276596069336 52.57790756225586 63.36381149291992 56.05636596679688 C 62.81151962280273 59.43295288085938 61.96714401245117 62.70743560791016 60.85412979125977 65.78882598876953 C 58.67583465576172 71.81949615478516 55.45427322387695 77.10834503173828 51.5377311706543 81.08360290527344 C 46.25778961181641 86.44268798828125 39.95972061157227 89.27535247802734 33.32439041137695 89.27535247802734 Z" stroke="none"/>
        <path d="M 31.3224983215332 1 C 24.8240852355957 1 18.64918518066406 3.781097412109375 13.46534729003906 9.04266357421875 C 9.599086761474609 12.96685791015625 6.416984558105469 18.19310760498047 4.263034820556641 24.1563720703125 C 3.160449981689453 27.20889663696289 2.323860168457031 30.45338439941406 1.776523590087891 33.79968643188477 C 1.212322235107422 37.24908447265625 0.953399658203125 40.82213592529297 1.006923675537109 44.41957092285156 C 1.36724853515625 68.63381195068359 15.72169876098633 88.53072357177734 33.00538635253906 88.77310943603516 C 33.11286163330078 88.77462005615234 33.21718597412109 88.77534484863281 33.32438659667969 88.77534484863281 C 39.82279968261719 88.77534484863281 45.99769592285156 85.99424743652344 51.18154907226563 80.73269653320313 C 55.04779815673828 76.80848693847656 58.22989654541016 71.58224487304688 60.38386154174805 65.61897277832031 C 61.48643493652344 62.56644821166992 62.32302474975586 59.32196044921875 62.870361328125 55.97565841674805 C 63.4345588684082 52.52626037597656 63.69348526000977 48.95320892333984 63.63996124267578 45.35577392578125 C 63.27964782714844 21.14153289794922 48.92519760131836 1.244621276855469 31.64149856567383 1.002235412597656 C 31.53402328491211 1.000724792480469 31.4296989440918 1 31.3224983215332 1 M 31.3224983215332 0 C 31.43440628051758 0 31.54333114624023 0.000762939453125 31.65553665161133 0.0023345947265625 C 49.50338745117188 0.2526321411132813 64.27097320556641 20.55140686035156 64.63984680175781 45.34089660644531 C 65.00640106201172 69.97454071044922 51.0136604309082 89.77534484863281 33.32438659667969 89.77534484863281 C 33.21247863769531 89.77534484863281 33.10355377197266 89.77458190917969 32.99134826660156 89.77301025390625 C 15.14349746704102 89.52271270751953 0.3759231567382813 69.22393798828125 0.0070343017578125 44.4344482421875 C -0.3595199584960938 19.80080413818359 13.63323593139648 0 31.3224983215332 0 Z" stroke="none" fill="#83f069"/>
      </g>
      <g id="Trazado_4" data-name="Trazado 4" transform="matrix(0.995, -0.105, 0.105, 0.995, 224.218, 23.836)" fill="#1bf007">
        <path d="M 32.90158462524414 101.8196640014648 C 32.85579681396484 101.8196640014648 32.81171798706055 101.8195114135742 32.76587677001953 101.819206237793 C 28.491943359375 101.7908477783203 24.33209037780762 100.438606262207 20.40186309814453 97.80003356933594 C 16.58318328857422 95.23636627197266 13.14033031463623 91.57382202148438 10.16893005371094 86.91412353515625 C 7.187209606170654 82.23825073242188 4.832823276519775 76.7974853515625 3.171183109283447 70.74296569824219 C 1.448649883270264 64.46652984619141 0.5506231784820557 57.80430221557617 0.5020498633384705 50.94134140014648 C 0.470769852399826 46.52024841308594 0.7994498610496521 42.13481903076172 1.478969812393188 37.90683364868164 C 2.137863159179688 33.80727386474609 3.126569747924805 29.85220718383789 4.417649745941162 26.15148735046387 C 6.95428991317749 18.88054084777832 10.63406276702881 12.68174076080322 15.05915641784668 8.225220680236816 C 20.0774097442627 3.171340465545654 25.90067672729492 0.4999938905239105 31.89943695068359 0.4999938905239105 C 31.94522285461426 0.4999938905239105 31.98931694030762 0.5001405477523804 32.03515625 0.5004472136497498 C 36.30908966064453 0.5288072228431702 40.46894454956055 1.881047248840332 44.3991813659668 4.519620418548584 C 48.21784973144531 7.083287239074707 51.66070175170898 10.74583435058594 54.63210296630859 15.40552711486816 C 57.61382293701172 20.08139419555664 59.96820831298828 25.52216720581055 61.62983703613281 31.57668685913086 C 63.35238265991211 37.85312652587891 64.25041198730469 44.51535415649414 64.29897308349609 51.37831497192383 C 64.33026123046875 55.79939270019531 64.00157165527344 60.18483352661133 63.32204818725586 64.41280364990234 C 62.66316986083984 68.51236724853516 61.6744499206543 72.46744537353516 60.38336944580078 76.16815185546875 C 57.84674453735352 83.43910217285156 54.16696929931641 89.63790130615234 49.74186325073242 94.09443664550781 C 44.7236213684082 99.1483154296875 38.90034484863281 101.8196640014648 32.90158462524414 101.8196640014648 Z" stroke="none"/>
        <path d="M 31.89943695068359 0.9999923706054688 C 26.03684997558594 0.9999923706054688 20.33626174926758 3.620262145996094 15.41395568847656 8.5775146484375 C 11.04115676879883 12.98138427734375 7.401943206787109 19.11531066894531 4.889743804931641 26.31619262695313 C 3.608329772949219 29.98921966552734 2.626861572265625 33.91556549072266 1.972637176513672 37.98618316650391 C 1.297504425048828 42.18683242797852 0.9709434509277344 46.54439544677734 1.002037048339844 50.93779373168945 C 1.050304412841797 57.75725936889648 1.942329406738281 64.37615203857422 3.653354644775391 70.61063385009766 C 5.301731109619141 76.61683654785156 7.635730743408203 82.01167297363281 10.59050369262695 86.64528656005859 C 13.52463531494141 91.24654388427734 16.9194221496582 94.85987091064453 20.68055725097656 97.38491058349609 C 24.52788925170898 99.96783447265625 28.5951042175293 101.2915267944336 32.76908874511719 101.319221496582 C 32.81383514404297 101.3195114135742 32.85687637329102 101.3196640014648 32.90158081054688 101.3196640014648 C 38.76416778564453 101.3196640014648 44.46475601196289 98.69939422607422 49.38706207275391 93.74214172363281 C 53.75986480712891 89.33827209472656 57.39907836914063 83.20433807373047 59.91127777099609 76.00346374511719 C 61.19268798828125 72.33043670654297 62.17415618896484 68.40408325195313 62.82838439941406 64.33347320556641 C 63.50351715087891 60.13282012939453 63.830078125 55.77526092529297 63.79898452758789 51.38185882568359 C 63.75072860717773 44.56239318847656 62.85868835449219 37.94348907470703 61.14767456054688 31.70900726318359 C 59.49929046630859 25.70280456542969 57.16530227661133 20.3079833984375 54.21052932739258 15.67435455322266 C 51.27639770507813 11.07309722900391 47.88160705566406 7.45977783203125 44.12047576904297 4.934738159179688 C 40.27314376831055 2.351821899414063 36.2059326171875 1.028129577636719 32.03194427490234 1.000434875488281 C 31.98719787597656 1.000137329101563 31.94414138793945 0.9999923706054688 31.89943695068359 0.9999923706054688 M 31.89943313598633 0 C 31.94634246826172 0 31.99151611328125 0.000152587890625 32.03847503662109 0.000457763671875 C 49.93164825439453 0.1191787719726563 64.59902191162109 23.12023162841797 64.79895782470703 51.37477874755859 C 64.99837493896484 79.55516052246094 50.7291259765625 102.3196563720703 32.90158843994141 102.3196563720703 C 32.85467529296875 102.3196563720703 32.80951690673828 102.3195037841797 32.76255798339844 102.3191909790039 C 14.869384765625 102.2004776000977 0.2020111083984375 79.19939422607422 0.0020599365234375 50.94487380981445 C -0.197357177734375 22.76449584960938 14.07189178466797 0 31.89943313598633 0 Z" stroke="none" fill="#83f069"/>
      </g>
      <g id="Trazado_8" data-name="Trazado 8" transform="matrix(0.985, 0.174, -0.174, 0.985, 317.305, 18.455)" fill="#1bf007">
        <path d="M 31.5406665802002 101.9551239013672 C 25.57338714599609 101.9551239013672 19.79389381408691 99.299072265625 14.82700061798096 94.27410888671875 C 10.43406772613525 89.82981872558594 6.792747497558594 83.64080810546875 4.296693801879883 76.37618255615234 C 3.026134014129639 72.67832946777344 2.058294057846069 68.72481536865234 1.420040726661682 64.62549591064453 C 0.7618007063865662 60.39780426025391 0.4541206955909729 56.01102066040039 0.5055473446846008 51.58699417114258 C 0.5854540467262268 44.71477890014648 1.512867331504822 38.03987121582031 3.262040615081787 31.74771308898926 C 4.949440479278564 25.67779159545898 7.326000690460205 20.21945953369141 10.32569408416748 15.52432537078857 C 13.3151741027832 10.84520530700684 16.77106666564941 7.162619113922119 20.59738731384277 4.578885555267334 C 24.53528022766113 1.919792413711548 28.69645309448242 0.5478590726852417 32.96530914306641 0.5012190937995911 C 33.03876113891602 0.5004190802574158 33.11457443237305 0.5000057816505432 33.18790817260742 0.5000057816505432 C 39.15520095825195 0.5000057816505432 44.9346923828125 3.15605902671814 49.90157318115234 8.181018829345703 C 54.29450607299805 12.62532615661621 57.93582916259766 18.8143253326416 60.43188095092773 26.07895278930664 C 61.70242691040039 29.77681922912598 62.67028045654297 33.73031234741211 63.30852127075195 37.82963180541992 C 63.96676254272461 42.05732727050781 64.27443695068359 46.44411087036133 64.22301483154297 50.86813735961914 C 64.14310455322266 57.74035263061523 63.21569442749023 64.41526031494141 61.46652221679688 70.70742034912109 C 59.77912139892578 76.77733612060547 57.40256118774414 82.23567199707031 54.40286636352539 86.93080902099609 C 51.41338729858398 91.60992431640625 47.95749282836914 95.29251098632813 44.13118743896484 97.87625885009766 C 40.19329452514648 100.5353546142578 36.03211975097656 101.9072723388672 31.76326751708984 101.9539108276367 C 31.6898136138916 101.9547119140625 31.61400032043457 101.9551239013672 31.5406665802002 101.9551239013672 Z" stroke="none"/>
        <path d="M 33.18789672851563 0.9999923706054688 C 33.11639404296875 0.9999923706054688 33.04246520996094 1.000396728515625 32.97076416015625 1.001182556152344 C 28.80145263671875 1.046737670898438 24.73258209228516 2.389862060546875 20.87719345092773 4.993247985839844 C 17.10781097412109 7.538551330566406 13.69953918457031 11.17227935791016 10.74705123901367 15.79352569580078 C 7.77410888671875 20.44676208496094 5.417865753173828 25.85959625244141 3.743782043457031 31.88162231445313 C 2.006195068359375 38.132080078125 1.084922790527344 44.76388168334961 1.005523681640625 51.59280776977539 C 0.9544105529785156 55.98920822143555 1.260093688964844 60.34816741943359 1.914081573486328 64.54856872558594 C 2.547824859619141 68.61888122558594 3.508537292480469 72.54359436035156 4.769550323486328 76.21369171142578 C 7.241352081298828 83.40773773193359 10.84210968017578 89.53137969970703 15.18257904052734 93.92259216308594 C 20.05343627929688 98.85042572021484 25.70998001098633 101.4551239013672 31.54066467285156 101.4551239013672 C 31.61216735839844 101.4551239013672 31.68610763549805 101.454719543457 31.75780868530273 101.4539337158203 C 35.9271240234375 101.4083786010742 39.99597930908203 100.0652542114258 43.85137939453125 97.46186828613281 C 47.62075042724609 94.91656494140625 51.02902221679688 91.2828369140625 53.98152160644531 86.66160583496094 C 56.9544677734375 82.00835418701172 59.31069564819336 76.59553527832031 60.98477935791016 70.57349395751953 C 62.72236633300781 64.32303619384766 63.64365386962891 57.69124984741211 63.72305297851563 50.86232376098633 C 63.77415084838867 46.46590805053711 63.46846771240234 42.10696411132813 62.81447982788086 37.90655517578125 C 62.18073654174805 33.83623504638672 61.22002410888672 29.91150665283203 59.95900726318359 26.24140930175781 C 57.4871940612793 19.04736328125 53.88642120361328 12.92372131347656 49.54595184326172 8.532508850097656 C 44.67510986328125 3.604690551757813 39.01858139038086 0.9999923706054688 33.18789672851563 0.9999923706054688 M 33.18789672851563 -7.62939453125e-06 C 50.95303726196289 -7.62939453125e-06 65.05049896240234 22.70158386230469 64.72298431396484 50.87395095825195 C 64.39405059814453 79.16545104980469 49.63993835449219 102.2585906982422 31.76873779296875 102.4538803100586 C 31.69347381591797 102.454704284668 31.61579513549805 102.4551239013672 31.54066467285156 102.4551239013672 C 13.77550888061523 102.4551239013672 -0.3219451904296875 79.75353240966797 0.00559234619140625 51.58118057250977 C 0.3345108032226563 23.28964996337891 15.088623046875 0.1965408325195313 32.9598388671875 0.0012359619140625 C 33.03510284423828 0.0004119873046875 33.11276245117188 -7.62939453125e-06 33.18789672851563 -7.62939453125e-06 Z" stroke="none" fill="#83f069"/>
      </g>
      <g id="Trazado_7" data-name="Trazado 7" transform="translate(369.673 102.531) rotate(16)" fill="#1bf007">
        <path d="M 29.37717819213867 95.85424041748047 C 23.74360275268555 95.85424041748047 18.30930328369141 93.35317993164063 13.66176605224609 88.62143707275391 C 9.575128555297852 84.46075439453125 6.203865528106689 78.67390441894531 3.912465810775757 71.886474609375 C 2.745490789413452 68.42976379394531 1.863365769386292 64.73361206054688 1.290590763092041 60.90069198608398 C 0.6998907327651978 56.94779205322266 0.4380657374858856 52.8446159362793 0.5124032497406006 48.70513916015625 C 0.9846157431602478 22.4079532623291 14.86401557922363 0.7844653129577637 31.45187759399414 0.5027778148651123 C 31.56034088134766 0.5009403228759766 31.67129135131836 0.5000028610229492 31.77943992614746 0.5000028610229492 C 37.41301727294922 0.5000028610229492 42.84731674194336 3.001065254211426 47.49485397338867 7.732802867889404 C 51.58150482177734 11.8934907913208 54.95275497436523 17.68035316467285 57.24416732788086 24.46777725219727 C 58.41114044189453 27.92448997497559 59.29326629638672 31.62063980102539 59.86603927612305 35.45356369018555 C 60.45674133300781 39.40646362304688 60.71856689453125 43.50963973999023 60.64422988891602 47.64910125732422 C 60.17202758789063 73.94630432128906 46.29264068603516 95.56979370117188 29.70476531982422 95.85146331787109 C 29.59630393981934 95.85330200195313 29.4853401184082 95.85424041748047 29.37717819213867 95.85424041748047 Z" stroke="none"/>
        <path d="M 31.7794361114502 0.9999923706054688 C 31.6740894317627 0.9999923706054688 31.56603622436523 1.000900268554688 31.46035575866699 1.002700805664063 C 27.53094100952148 1.069435119628906 23.68777084350586 2.353530883789063 20.03757095336914 4.819313049316406 C 16.46670150756836 7.231513977050781 13.22983551025391 10.66422271728516 10.41687393188477 15.02211761474609 C 7.583877563476563 19.41103363037109 5.328342437744141 24.51017761230469 3.712917327880859 30.17788696289063 C 2.036155700683594 36.0607795715332 1.127540588378906 42.29727554321289 1.012313842773438 48.71412658691406 C 0.9384765625 52.82594299316406 1.198474884033203 56.9012336730957 1.785102844238281 60.8267936706543 C 2.353515625 64.63055419921875 3.228649139404297 68.29776763916016 4.386196136474609 71.72653961181641 C 6.653610229492188 78.44288635253906 9.984394073486328 84.16390228271484 14.01847457885742 88.27107238769531 C 18.56986236572266 92.90493011474609 23.88082122802734 95.354248046875 29.37719535827637 95.354248046875 C 29.48254203796387 95.354248046875 29.59059524536133 95.35334014892578 29.69627571105957 95.35153961181641 C 33.62568664550781 95.28480529785156 37.46887588500977 94.00072479248047 41.11906433105469 91.53494262695313 C 44.68994140625 89.12274169921875 47.92681121826172 85.69003295898438 50.73976898193359 81.33213806152344 C 53.57275390625 76.94322204589844 55.82828903198242 71.84407043457031 57.4437141418457 66.17636871337891 C 59.12047576904297 60.29346084594727 60.02909088134766 54.05696868896484 60.14431762695313 47.64011383056641 C 60.21815490722656 43.52830123901367 59.95815658569336 39.45302200317383 59.37152862548828 35.52746200561523 C 58.80311584472656 31.72368621826172 57.92798233032227 28.05648803710938 56.77043533325195 24.62771606445313 C 54.50302124023438 17.91135406494141 51.17223358154297 12.19033813476563 47.13814163208008 8.083168029785156 C 42.58675384521484 3.449317932128906 37.27579498291016 0.9999923706054688 31.7794361114502 0.9999923706054688 M 31.77943992614746 -7.62939453125e-06 C 48.50184631347656 -7.62939453125e-06 61.61876678466797 21.22756195068359 61.14415740966797 47.65807342529297 C 60.66639709472656 74.26400756835938 46.59430313110352 96.06474304199219 29.71324920654297 96.35139465332031 C 29.60197257995605 96.35328674316406 29.48815155029297 96.354248046875 29.37718963623047 96.354248046875 C 12.65478515625 96.354248046875 -0.4621353149414063 75.126708984375 0.01247406005859375 48.6961669921875 C 0.490234375 22.09026336669922 14.56234359741211 0.2895126342773438 31.44338226318359 0.00284576416015625 C 31.55465888977051 0.0009613037109375 31.66847801208496 -7.62939453125e-06 31.77943992614746 -7.62939453125e-06 Z" stroke="none" fill="#83f069"/>
      </g>
      <path id="Trazado_3" data-name="Trazado 3" d="M663.885-307.257s31.411,10.229,39.6,12.147,35.508,5.754,46.433,9.589,26.631,12.147,32.776,18.539,16.388,17.261,16.388,17.261S805.916-290,785.43-314.289s-36.874-40.914-42.336-42.832-30.728-7.032-45.068,8.311S663.885-307.257,663.885-307.257Z" transform="translate(-432.212 512.344)" fill="#1bf007" stroke="#83f069" stroke-width="1"/>
      <path id="Trazado_5" data-name="Trazado 5" d="M539.979-58.417s-97.5-56.05-141.357-93.864-73.856-88.593-71.548-157.739,62.679-92.109,85.759-102.913c19.987-9.356,57.872,2.5,69.856,7.751.751.326-4.764,0-4.764,0s11.21-5.119,0,10.4c-3.1,5.329-5.158,7.678-7.206,9.639-1.981,1.914-1.591,1.411-1.591,1.411S454.46-388.264,447.7-390.9c-11.416-2.4-40.657-5.43-59.136,17.637-23.968,29.919-26.631,42.385-31.069,55.682s-8.877,63.993,15.978,93.912S448.686-162.987,458.451-158" transform="translate(-248.628 422.542)" fill="#135a98" stroke="#135a98" stroke-width="1"/>
      <text id="Social" transform="translate(0 424.311)" fill="#135a98" font-size="67" font-family="Comfortaa-Regular, Comfortaa"><tspan x="0" y="0">Social</tspan></text>
      <text id="animal" transform="translate(293.496 424.311)" fill="#135a98" font-size="67" font-family="Comfortaa-Regular, Comfortaa"><tspan x="0" y="0">animal</tspan></text>
    </g>
  </g>
</svg>
